<?xml version="1.0" encoding="utf-8"?>
<!-- Generator: Adobe Illustrator 18.1.1, SVG Export Plug-In . SVG Version: 6.00 Build 0)  -->
<svg version="1.1"
	 id="svg2" sodipodi:docname="leaf.svg" inkscape:version="0.48.3.1 r9886" xmlns:dc="http://purl.org/dc/elements/1.1/" xmlns:cc="http://creativecommons.org/ns#" xmlns:rdf="http://www.w3.org/1999/02/22-rdf-syntax-ns#" xmlns:svg="http://www.w3.org/2000/svg" xmlns:sodipodi="http://sodipodi.sourceforge.net/DTD/sodipodi-0.dtd" xmlns:inkscape="http://www.inkscape.org/namespaces/inkscape"
	 xmlns="http://www.w3.org/2000/svg" xmlns:xlink="http://www.w3.org/1999/xlink" x="0px" y="0px" viewBox="218 -219 512 512"
	 enable-background="new 218 -219 512 512" xml:space="preserve">
<sodipodi:namedview  showgrid="false" inkscape:cy="164.60701" inkscape:cx="586.62678" inkscape:zoom="0.98994949" borderopacity="1.0" bordercolor="#666666" pagecolor="#ffffff" id="base" inkscape:window-maximized="1" inkscape:window-width="1920" inkscape:window-y="27" inkscape:current-layer="layer1" inkscape:pageshadow="2" inkscape:pageopacity="0.0" inkscape:window-height="1025" inkscape:document-units="px" inkscape:window-x="0">
	</sodipodi:namedview>
<g id="layer1" transform="translate(0,-540.36218)" inkscape:label="Layer 1" inkscape:groupmode="layer">
	<path id="path4" sodipodi:nodetypes="cccccccccccsc" inkscape:connector-curvature="0" fill="#F9F9F9" d="M380.8,833.4
		c-104.9-59.1-132.5-115.1-116.7-191.5c11.7-56.4,49.8-102.4,53.5-158.7c16.3,29.7,23.1,51.1,24.9,82.1
		c51.9-63.5,86.1-151.5,88.2-243.9c0,0,135.1,79.4,143.9,199.2c11.6-24.7,17.5-64,5.9-89.4c34.9,25.4,239.1,251.2-27.7,402.1
		c50.1-97.6,12.9-229.4-74.1-290.2c5.8,26.2-4.4,123.7-42.9,166.6c10.7-71.6-10.2-101.9-10.2-101.9s-7.1,40.1-34.9,80.7
		C365.4,725.5,347.9,764.8,380.8,833.4z"/>
</g>
</svg>
