<svg version="1.1" xmlns="http://www.w3.org/2000/svg" xmlns:xlink="http://www.w3.org/1999/xlink" x="0px" y="0px" viewBox="0 0 125 125" enable-background="new 0 0 125 125" xml:space="preserve">
	<g class="icon-jungle">
		<path fill="#f9f9f9" d="M61.9,69.8c0,0-2,2.6-8.7,3.9c0,0,0.3,10.5-1.8,14.2c0,0,1.4,3,10.5,6.4c0,0-8-0.6-10.9-3 c0,0-0.3,1.4,0,2.3c0,0,8.1,3.8,14,3.6c0,0,7.8-4.6,10-7.2c0,0,0.1-1.1-0.8-1.4c0,0-5.1,4.7-8.6,5.3c0,0,3.8-5.3,7.7-7 c0,0-1.7-7.7-1.9-15.5c0,0-4.9,1.1-3.2,8.9c0,0-2.3-1.1-1.9-6.4C66.3,73.8,64.3,70.6,61.9,69.8z"></path>
		<path fill="#f9f9f9" d="M62.8,65.5c0,0-1.4,3.6-8.5,4.3c0,0-9.3-8.8-5.8-20.7c0,0,8.3,2.5,10.4,6c0,0,0.7,3.3-7.3,2.7 c0,0,1.6,1.5,6.1,0.8s7.2,0.1,9.7,2.1s4.4,2.8,8.3,0.9c0,0-0.3,4.2-3.5,5.1c-3.1,0.8-4.5,4.5-4.5,4.5S62.5,68.4,62.8,65.5z"></path>
		<path fill="#f9f9f9" d="M54.5,35.1c0,0-0.6,4.5,0,6.4c0,0-4.2,2.1-4.2,3.8c0,1.7,0.3,2.8,3.7,3.9c0,0,0.1-1.7,1-2c0,0,0.2,2,0,3.3 c0,0,5.4,1.3,5.3,6.2c0,0,2.9-0.2,3.2-1.9c0.3-1.7,0.8-1.6,0.8-1.6s0.4,3.5,0,4.6c0,0,1.4-0.2,3.1,1.1c0,0,2.1-2,2.9-3.4 c0,0-0.5,2.9-1.4,4c0,0,1,1.2,1.7,1.4c0,0,5.1-2.1,6.3-4.1c0,0,0.3-6.4-0.7-10.3c0,0-2,1.6-3.1-0.8c-1.1-2.5-2.4-4.1-3.4-4.2 c0,0-2.6,0.5-2.9,1.1c0,0-1-1.8,1.4-2.4c0,0-1.2-4-1-7.3c0,0-4,3.7-3.5,8c0,0-1.8,0.4-2.6-1.1c0,0-1.9,1.1-3.1,2.4 c0,0-1.1-1.6,0.6-2.7C58.6,39.3,54.9,37.3,54.5,35.1z"></path>
		<path fill="#f9f9f9" d="M72.3,42.3c0,0,2,1.6,2.2,2.8c0,0,2.4-1.9,2.7-5.2C77.3,40,73.3,40.8,72.3,42.3z"></path>
		<path fill="#f9f9f9" d="M45,64.2c0,0-1.1-7.9-2-11.8c0,0-3.5-3.6-7-6.4c0,0-9.6,5.3-9.9-8.4c0,0-9.5-10.8-11.1-17.4 c0,0-7,30.6,8.9,43.2c0,0,0.9-1.9,2.8-2.3c0,0,2.6,1.7,3.1,3.7c0,0,5.6-2.9,17.6,6.9c0,0-0.7-5.3-8.3-8.6s-9.8-4.7-12.2-7.3 C26.9,55.9,34.2,57.7,45,64.2z"></path>
		<path fill="#f9f9f9" d="M49.2,74.7c0,0,0,9.2-5.6,13.3c0,0-0.2,7.2,2.1,9.7c0,0-9.2,1.9-10.8-3.9h3.6c0,0,0.8-6.7-0.1-10.2 c0,0-2.9-1.9-2-5.5l4.3-2.6c0,0,1.8,2.6,1.8,5C42.6,80.4,42.9,77.4,49.2,74.7z"></path>
		<path fill="#f9f9f9" d="M33.7,82.8c0,0-3.4,5.8-9.9,6.1c0,0-4.3-3-6.9-3c-2.6-0.1-5.5,3.7-5.3,7.2c0.2,3.5,2.5,7.3,6.6,7.6 c4.2,0.3,5.4-4.7,5.4-6.9c0,0,10.9-3.4,13-6.4C36.6,87.4,36.9,83.4,33.7,82.8z M18.2,98.6c-2.1,0.3-3.5-1.9-3.8-3.7 c-0.3-1.8,0.7-5.6,3-5.4c2.9,0.3,3.8,2.3,3.8,4.6C21.2,96.1,20.4,98.3,18.2,98.6z"></path>
		<path fill="#f9f9f9" d="M80,64.2c0,0,1.1-7.9,2-11.8c0,0,3.5-3.6,7-6.4c0,0,9.6,5.3,9.9-8.4c0,0,9.5-10.8,11.1-17.4 c0,0,7,30.6-8.9,43.2c0,0-0.9-1.9-2.8-2.3c0,0-2.6,1.7-3.1,3.7c0,0-5.6-2.9-17.6,6.9c0,0,0.7-5.3,8.3-8.6s9.8-4.7,12.2-7.3 C98.1,55.9,90.8,57.7,80,64.2z"></path>
		<path fill="#f9f9f9" d="M75.8,74.7c0,0,0,9.2,5.6,13.3c0,0,0.2,7.2-2.1,9.7c0,0,9.2,1.9,10.8-3.9h-3.6c0,0-0.8-6.7,0.1-10.2 c0,0,2.9-1.9,2-5.5l-4.3-2.6c0,0-1.8,2.6-1.8,5C82.4,80.4,82.1,77.4,75.8,74.7z"></path>
		<path fill="#f9f9f9" d="M88.4,87.4c2.1,3,13,6.4,13,6.4c0,2.3,1.3,7.3,5.4,6.9c4.2-0.3,6.4-4.2,6.6-7.6c0.2-3.5-2.7-7.3-5.3-7.2 c-2.6,0.1-6.9,3-6.9,3c-6.5-0.3-9.9-6.1-9.9-6.1C88.1,83.4,88.4,87.4,88.4,87.4z M103.8,94c0-2.3,0.9-4.3,3.8-4.6 c2.3-0.2,3.3,3.6,3,5.4c-0.3,1.8-1.7,4.1-3.8,3.7S103.8,96.1,103.8,94z"></path>
	</g>
</svg>