<svg version="1.1" xmlns="http://www.w3.org/2000/svg" xmlns:xlink="http://www.w3.org/1999/xlink" x="0px" y="0px" viewBox="0 0 125 125" enable-background="new 0 0 125 125" xml:space="preserve">
	<g class="icon-mid">
		<path fill="#f9f9f9" d="M90,81.5c-11.7,3.8-19.8,18.1-19.8,18.1l-0.6-0.5c15.4-31.6,40.1-17.3,40.1-17.3l-2.7-4.9 c-4.4-0.1-6.4-0.6-6.4-0.6c1.1-0.9,4.9-1.2,4.9-1.2l-0.5-1.4c0,0-5,0.5-10.1-1.2c-5.1-1.7-8-7.3-19.6-0.9 c-11.6,6.5-11.3,16.8-11.3,16.8c1.4-5.8,5.5-6.4,5.5-6.4c-5.5,6.4-5.5,16.4-5.5,16.4c-1.2-0.7-1.9-2.7-1.9-2.7s-0.7,1.9-1.9,2.7 c0,0,0-10-5.5-16.4c0,0,4.2,0.6,5.5,6.4c0,0,0.3-10.3-11.3-16.8c-11.6-6.5-14.5-0.9-19.6,0.9c-5.1,1.7-10.1,1.2-10.1,1.2l-0.5,1.4 c0,0,3.8,0.3,4.9,1.2c0,0-2,0.5-6.4,0.6l-2.7,4.9c0,0,24.7-14.4,40.1,17.3l-0.6,0.5c0,0-8.1-14.3-19.8-18.1 c-11.7-3.8-20.8,4.9-20.8,4.9l7.2,3.3c0,0,10.4-7.8,22,1.6c11.6,9.4,9.4,12.4,9.4,12.4l7.3,3.2c0,0,1.5,0.6,2.7,0.6 c1.2,0,2.7-0.6,2.7-0.6l7.3-3.2c0,0-2.2-3,9.4-12.4c11.6-9.4,22-1.6,22-1.6l7.2-3.3C110.8,86.4,101.8,77.7,90,81.5z M58.5,104 c0,0,3.6-2.9,3.6-4.4c0,1.5,3.6,4.4,3.6,4.4s-1.9,0.9-3.6,0.9S58.5,104,58.5,104z"></path>
		<path fill="#f9f9f9" d="M47.7,21c1-2,5.5-5.9,5.5-5.9s6.1-1.3,7.9-2.4l-7.7,7.6c0,0-1,8.1,3.6,8.8c4.6,0.7,5.1-2.9,5.1-2.9 s7,8,10.5,17c3.5,9,5,13.8,6.1,16.2c0,0-3.3,6-8.4,9.2c-5.1,3.2-6.3,5.4-6.3,5.4s-6.1-10.5-9-11.5c0,0,1.8-3.3,4.7-6.4 c0,0,2.8,1.3,4.2,3.4l0.2,3.3c0,0-1.8-2.8-3.4-3.4l-0.2,2.9c0,0,1.4,3.4,3.6,4.3c0,0,3.1-1.9,5.5-4.9c0,0-5.4-6.2-9.4-8.5 l-4.3,4.2c0,0,2.6-5.7,7.3-10.1c0,0,1.8,0.1,4.4,2.4c0,0-1.1-2.7-4.1-4.4c0,0-10.7,9.1-11.6,15.9c0,0,6.5,6.5,9.1,14.9 c0,0,0.4,2.6,0.1,4.8c0,0-2.6-11.6-20.4-25.2c0,0,3.8-2.6,6.5-6.8c2.6-4.2,7.7-9.5,7.7-9.5s-0.4,3.4,0.6,4.1l4.2-5 c0,0,1-1.9-0.7-4.5l-8,5.9c0,0-2.4-4.9-4.1-8.8C46.8,31.3,46.4,23.4,47.7,21z"></path>
		<path fill="#f9f9f9" d="M66.5,24.4c0,0,9.9,14,12.2,23.5c0,0,0.4-7.9-0.7-14.7C78,33.3,72.7,27.5,66.5,24.4z"></path>
	</g>
</svg>