<svg version="1.1" xmlns="http://www.w3.org/2000/svg" xmlns:xlink="http://www.w3.org/1999/xlink" x="0px" y="0px" viewBox="0 0 125 125" enable-background="new 0 0 125 125" xml:space="preserve">
	<g class="icon-support">
		<path fill="#f9f9f9" d="M57.2,98.1c0,0,5.3,9.3,5.1,12.6c0,0,3.5-4.7,4.5-9.9c0,0-1.2-6-2.8-8.9c0,0-0.6,4.2-0.4,7.2 c0,0-1.5-1.2-0.2-8.3c0,0-0.5-16,0.5-20.4c1.1-4.3,1-6.7,1-6.7s-1.5,5.6-4.1,8.2C60.7,72,62.1,91.8,57.2,98.1z"></path>
		<path fill="#f9f9f9" d="M56.9,56.2c0,0,2.3,4.8,3.8,13.6c0,0,2.6-6.8,5.7-12.4c3.1-5.6,5.7-10.7,5.7-10.7S71.7,34,64.5,25.6 c0,0-0.9,3.5-12.8,8.3c0,0-1.5,7.3,2.7,10.2c0,0-0.6-2.6-0.6-4.8c0,0,6-4.4,6.3-6.5c0,0,6.8,3.6,7.8,10c0,0,0.6,3.6-0.7,6.1 s-2.7,8.1-5.5,12.7C61.7,61.4,59.5,57.1,56.9,56.2z"></path>
		<path fill="#f9f9f9" d="M55.3,39.3c0,0,1.9,5.2-0.8,8.9c0,0,2.9,3.1,6.8,9.7c0,0,3.6-8,3.7-10.9c0,0-4-7.4-6.7-9.1 C58.3,37.9,56.8,37.9,55.3,39.3z"></path>
		<path fill="#f9f9f9" d="M68.4,28.5c0,0,3.5,5.3,3.6,10.3c0,0,0.6-4.4,0.6-6.9C72.6,31.9,71.7,29.8,68.4,28.5z"></path>
		<path fill="#f9f9f9" d="M57.2,67.9c0,0-6.9-9.9-8.8-18.2c0,0-11.6-6.1-19.6-16.7s-6-19.8-6-19.8s-7.8,9.1,0.3,24.1 c0,0-5.3-3.9-7.5-8.8c0,0-2.2,16.5,22.3,24.1c0,0,0.6-1.9-2.7-6.1c0,0,6,2.8,11.5,8.6S51,66.7,51,66.7s-1.9-7-4.8-9.9 s-6.1-4.5-6.1-4.5s1,1.5,1,2.6c0,0-14.3-1.9-20.1-8.5c0,0-0.6,7,11.1,11.5c0,0-2.4,2.2-10.7-3.7c0,0,1.8,5.7,8.7,7.4 c6.9,1.7,11.7,2.1,18.8,8.6c7.1,6.5,4.8,6.9,4.3,6.6c-0.5-0.3-2-2.8-3.9-2.3c-2.2,0.6-0.3,7.9,2.7,8c3,0.1,5.2-2.7,5.2-5.7 S57.2,67.9,57.2,67.9z"></path>
		<path fill="#f9f9f9" d="M59,36.7c0,0,5.2,3.6,6.7,7.8c0,0,0.6-3.9-4.4-9.5C61.3,35,60.1,35,59,36.7z"></path>
		<path fill="#f9f9f9" d="M67.3,67.9c0,0,6.9-9.9,8.8-18.2c0,0,11.6-6.1,19.6-16.7s6-19.8,6-19.8s7.8,9.1-0.3,24.1 c0,0,5.3-3.9,7.5-8.8c0,0,2.2,16.5-22.3,24.1c0,0-0.6-1.9,2.7-6.1c0,0-6,2.8-11.5,8.6s-4.3,11.5-4.3,11.5s1.9-7,4.8-9.9 c2.8-2.8,6.1-4.5,6.1-4.5s-1,1.5-1,2.6c0,0,14.3-1.9,20.1-8.5c0,0,0.6,7-11.1,11.5c0,0,2.4,2.2,10.7-3.7c0,0-1.8,5.7-8.7,7.4 c-6.9,1.7-11.7,2.1-18.8,8.6c-7.1,6.5-4.8,6.9-4.3,6.6c0.5-0.3,2-2.8,3.9-2.3c2.2,0.6,0.3,7.9-2.7,8c-3,0.1-5.2-2.7-5.2-5.7 S67.3,67.9,67.3,67.9z"></path>
	</g>
</svg>