<?xml version="1.0" encoding="utf-8"?>
<!-- Generator: Adobe Illustrator 18.1.1, SVG Export Plug-In . SVG Version: 6.00 Build 0)  -->
<svg version="1.1" id="Layer_1" xmlns="http://www.w3.org/2000/svg" xmlns:xlink="http://www.w3.org/1999/xlink" x="0px" y="0px"
	 viewBox="0 0 40 40" enable-background="new 0 0 40 40" xml:space="preserve">
<g>
	<path fill="#FFFFFF" d="M38.3,33.4L27.9,23c1.4-2.3,2.2-5,2.2-7.8c0-8.2-6.6-14.8-14.8-14.8C7.2,0.4,0.6,7,0.6,15.2
		c0,8.2,6.6,14.8,14.8,14.8c2.9,0,5.6-0.8,7.9-2.3L33.6,38c0.7,0.7,1.6,1.1,2.6,1.1c0,0,0,0,0,0c0.8,0,1.6-0.3,2.3-0.9
		c0.6-0.6,0.9-1.5,0.9-2.3C39.4,35,39,34.1,38.3,33.4z M23.6,15.2c0,4.5-3.7,8.2-8.2,8.2c-4.5,0-8.2-3.7-8.2-8.2
		c0-4.5,3.7-8.2,8.2-8.2C19.9,6.9,23.6,10.6,23.6,15.2z"/>
</g>
</svg>
