<svg version="1.1" xmlns="http://www.w3.org/2000/svg" xmlns:xlink="http://www.w3.org/1999/xlink" x="0px" y="0px" viewBox="0 0 125 125" enable-background="new 0 0 125 125" xml:space="preserve">
	<g class="icon-adc">
		<polygon fill="#f9f9f9" points="88.4,21.6 86.9,35.4 83.9,38.1 82.8,36.5 83.9,33.5 82,35.4 80.3,33.3 80.3,31.3"></polygon>
		<polygon fill="#f9f9f9" points="40.6,38.1 37.5,35.1 36.4,21.6 44.4,31.9 44.4,34.3 42.7,35.4 40.9,33.3 41.8,36.1"></polygon>
		<path fill="#f9f9f9" d="M57.3,68c0,0,1-9.1-3.9-15.9c0,0-2.9,0.4-5,3.1C48.4,55.3,47.4,62,57.3,68z"></path>
		<path fill="#f9f9f9" d="M57,74.5V78c0,0-16.5-4-18-18.7l2.8-1.9C41.8,57.4,43.5,70.8,57,74.5z"></path>
		<path fill="#f9f9f9" d="M67.9,74.1V78c0,0,15.5-3.6,18.6-18.4l-3.1-2.2C83.4,57.4,81.6,70.5,67.9,74.1z"></path>
		<path fill="#f9f9f9" d="M67.9,68.4c0,0-0.5-9.1,3.9-16.3c0,0,3.5-0.1,5,3.5C76.8,55.6,78.7,60.5,67.9,68.4z"></path>
		<path fill="#f9f9f9" d="M56.3,30.9c0,0-10.1,2.5-15.9,14.2l4.8-1.9c0,0,4-6.1,9.4-7.9L56.3,30.9z"></path>
		<path fill="#f9f9f9" d="M68.6,30.9c0,0,11.6,3.4,15.8,14.2l-4.7-1.7c0,0-3-5.3-9.4-8.4L68.6,30.9z"></path>
		<path fill="#f9f9f9" d="M121.7,72.6c-6.9-1.6-8.9-7.4-14.2-16.3c-5.3-8.9-14.5-15.4-14.5-15.4c1.3,3.6-1,7.3-5.1,7.3 s-19-8.1-19-8.1c-0.8,4.4-2.3,3.5-2.3,3.5c0.8-4-2.2-5.1-2.2-5.1c-0.6-1,0.2-2.3,0.2-2.3c0.7-0.2,4.3,1.3,4.3,1.3l-3.4-10.1 l1.7-0.7L62.5,9.8l-4.8,16.9l2.1,1L56,38.2c1.9-1.6,4.2-1.9,4.2-1.9c0.8,0.8,0.6,2,0.6,2s-2.1,1.1-2.1,3.6c0,3.9,4,4.7,4,4.7 c0.1,3.5-1.2,6.4-1.2,6.4L61,48.5c-3.9-3-5.7-8-5.7-8s-11.1,7.8-17.2,7.9c-6.1,0.1-6.3-7.2-6.3-7.2C24.5,45.5,14.7,62,11.7,67.2 c-3,5.2-8.4,5.8-8.4,5.8C14.4,72.3,22,76.7,22,76.7c-2.8-2.4-8.6-4.8-8.6-4.8c3.5-11.1,17.4-18.2,17.4-18.2 c3.7,1.7,4.5,4.2,4.5,4.2c8.2-7,20.7-8.8,20.7-8.8c4.3,12.7,4.3,39.7,4.3,39.7l-3.5-8h-2.4l6,11.5c-5.7,7.9-5,14.6-5,14.6 c1-0.9,2.4-0.7,2.4-0.7c-3.1,3.5-2.8,5.6-2.8,5.6l6.7-5.3l0.7-2l0.7,2.4c0,0,3.4,0.6,7,4.9c0.5-5.6-2.8-9.4-2.8-9.4l2.1,0.7 c-0.2-2.4-4.8-10.1-4.8-10.1l5.5-12.2H68l-3,7.3c-1-25.9,4.7-39.7,4.7-39.7c12.4,2.1,20.3,10.1,20.3,10.1c1.1-3.1,4.6-4.2,4.6-4.2 c10.5,3.9,17.3,17.4,17.3,17.4c-2.8,1.2-8.3,5-8.3,5C110.1,73,121.7,72.6,121.7,72.6z M62.5,39.4c-0.9-6,0-14.5,0-14.5 C63.8,33.3,62.5,39.4,62.5,39.4z"></path>
	</g>
</svg>