<svg version="1.1" xmlns="http://www.w3.org/2000/svg" xmlns:xlink="http://www.w3.org/1999/xlink" x="0px" y="0px" viewBox="0 0 125 125" enable-background="new 0 0 125 125" xml:space="preserve">
	<g class="icon-top">
		<path fill="#f9f9f9" d="M104.2,21.3c0,0-2,3.6-16.3,3.3s-13.6-8.1-13.6-8.1C64.8,16.6,62,11.1,62,11.1s-2.8,5.5-12.4,5.4 c0,0,0.7,7.7-13.6,8.1s-16.3-3.3-16.3-3.3s-1.5,7.2,0,15.9c1.5,8.7,7.4,38.8,7.4,38.8l28,33.9l2.8-3.3c0,0-1.5-5.1,4.1-7.2 c5.6,2.1,4.1,7.2,4.1,7.2l2.8,3.3l28-33.9c0,0,5.9-30.1,7.4-38.8S104.2,21.3,104.2,21.3z M94.8,74.8L78.6,94.9l14.6-23.2l4.4-30.4 C91.2,41.9,92,31,92,31c-1.1,2.8-1.7,7.2-1.5,14.4s-4.2,15.4-4.2,15.4L74.8,71.7C73.1,68.1,70,67,70,67c-2.1,5.7-2.4,24-2.4,24 l5.6-5l-5,9.5c4.3,4.6,1.9,9.4,1.9,9.4c-0.7-7.3-5.4-7.5-5.4-7.5c0.2-2.3,1.5-2.9,1.5-2.9c-2-1.6-4.1-0.9-4.1-0.9 s-2.1-0.7-4.1,0.9c0,0,1.2,0.7,1.5,2.9c0,0-4.6,0.2-5.4,7.5c0,0-2.4-4.7,1.9-9.4l-5-9.5l5.6,5c0,0-0.3-18.3-2.4-24 c0,0-3.2,1.1-4.8,4.7L37.8,60.8c0,0-4.4-8.2-4.2-15.4c0.2-7.2-0.4-11.6-1.5-14.4c0,0,0.8,10.9-5.5,10.3l4.4,30.4l14.6,23.2 L29.2,74.8l-6.7-38.1c0,0,2.7,0.8,4.3-1.8s-1.4-6.1-1.4-6.1l1.1-1.8c0,0,15.9-0.2,19.5-0.5c3.6-0.2,7.7-1.5,10.9-4h5h5
				c3.2,2.4,7.3,3.7,10.9,4c3.6,0.2,19.5,0.5,19.5,0.5l1.1,1.8c0,0-3,3.5-1.4,6.1s4.3,1.8,4.3,1.8L94.8,74.8z"></path>
		<path fill="#f9f9f9" d="M84.3,35.6L83.4,39v-4.1L74,29.8V37c0,0-2.9,0.5-4-3.3h-8h-8C53,37.5,50,37,50,37v-7.2l-9.5,5.1V39 l-0.9-3.4L38.1,37l2,17.1c1.3,2.5,2.8,2.4,2.8,2.4l0.6-4.1l0.4,4.5l7.6,1.8v-9l1.2,2.8h6.8c0.7,1,0.6,2.1,0.6,2.1L57,55.2v4.6 l2.7,1.5c-0.2,3.1,1,4.1,1,4.1V92H62h1.4V65.5c0,0,1.1-1.1,1-4.1l2.7-1.5v-4.6L64,54.7c0,0-0.2-1.1,0.6-2.1h6.8l1.2-2.8v9l7.6-1.8 l0.4-4.5l0.6,4.1c0,0,1.5,0.1,2.8-2.4l2-17.1L84.3,35.6z"></path>
		<polygon fill="#f9f9f9" points="64.6,29.8 62,29.8 59.4,29.8 57.3,32.3 62,32.3 66.7,32.3"></polygon>
		<path fill="#f9f9f9" d="M65,108c-2,1.2-3,1.1-3,1.1s-1,0.1-3-1.1l-1.7,2.4c0,0,2.3,1.7,4.7,1.7c2.4,0,4.7-1.7,4.7-1.7L65,108z"></path>
	</g>
</svg>