<svg version="1.1" xmlns="http://www.w3.org/2000/svg" xmlns:xlink="http://www.w3.org/1999/xlink" x="0px" y="0px" viewBox="0 0 50 50" enable-background="new 0 0 50 50" xml:space="preserve">
	<g>
		<path fill="#FFFFFF" d="M23.6,28.7l-8.8-4.9c-1.5-0.9-3.2-1.4-5-1.4c-5.4,0-9.8,4.4-9.8,9.8S4.4,42,9.8,42c4.5,0,8.3-3.1,9.5-7.2 L14,32c0,0.1,0,0.2,0,0.3c0,2.2-1.8,4-4,4s-4-1.8-4-4s1.8-3.9,4-3.9c0.9,0,1.6,0.3,2.4,0.7l22.8,12.7c0,0,3.2,1.4,5,1.4 c5.4,0,9.8-4.4,9.8-9.8s-4.4-9.8-9.8-9.8c-4.5,0-8.3,3.1-9.5,7.2l5.3,2.9c0-0.1,0-0.2,0-0.3c0-2.2,1.8-4,4-4c2.2,0,4,1.8,4,4 s-1.8,3.9-4,3.9c-0.9,0-1.6-0.3-2.4-0.7l-9-5l5.2-9.7l0,0c0.9-1.5,1.4-3.2,1.4-5c0-5.4-4.4-9.8-9.8-9.8s-9.8,4.4-9.8,9.8 c0,4.5,3.1,8.3,7.2,9.5l2.9-5.3c-0.1,0-0.2,0-0.3,0c-2.2,0-4-1.8-4-4c0-2.2,1.8-4,4-4s3.9,1.8,3.9,4c0,0.9-0.3,1.6-0.7,2.4 L23.6,28.7z"></path>
	</g>
</svg>