<svg version="1.1" id="Layer_1" xmlns="http://www.w3.org/2000/svg" xmlns:xlink="http://www.w3.org/1999/xlink" x="0px" y="0px" viewBox="0 0 300 38" enable-background="new 0 0 300 38" xml:space="preserve">
	<path id="XMLID_6_" fill="#F9F9FA" d="M0,37.4V0.8h10.9v27.4h14.9v9.1H0z"/>
	<path id="XMLID_16_" fill="#F9F9FA" d="M73.4,37.4V0.8h10.9v27.4h14.9v9.1H73.4z"/>
	<path id="XMLID_10_" fill="#F9F9FA" d="M191.8,37.4h-2.6l15.2-36.6h3.9l15.2,36.6h-2.9l-14.2-34L191.8,37.4z"/>
	<path id="XMLID_17_" fill="#F9F9FA" d="M246.7,37.9c-5.5,0-10.1-2-13.2-5.6l1.7-1.9c1.9,2.1,5.7,5.3,11.6,5.3
		c9.6,0,10.1-6.4,10.1-7.7c0-5.5-5.4-7-10.7-8.4c-5.7-1.6-11.7-3.3-11.7-9.8c0-2.8,1.2-5.2,3.5-7c2.2-1.7,5.2-2.6,8.5-2.6
		c5.1,0,9.2,1.7,12.2,4.9L257,6.8c-2.6-3-6.3-4.5-10.7-4.5c-5.2,0-9,3-9,7.2c0,4.6,4.8,5.9,9.8,7.3c3,0.9,6.2,1.7,8.6,3.3
		c2.7,1.8,4,4.3,4,7.6C259.7,32.6,256.3,37.9,246.7,37.9z"/>
	<path id="XMLID_9_" fill="#F9F9FA" d="M287.1,37.9c-5.5,0-10.1-2-13.2-5.6l1.7-1.9c1.9,2.1,5.7,5.3,11.6,5.3
		c9.6,0,10.1-6.4,10.1-7.7c0-5.5-5.4-7-10.7-8.4c-5.7-1.6-11.7-3.3-11.7-9.8c0-2.8,1.2-5.2,3.5-7c2.2-1.7,5.2-2.6,8.5-2.6
		c5.1,0,9.2,1.7,12.2,4.9l-1.7,1.9c-2.6-3-6.3-4.5-10.7-4.5c-5.2,0-9,3-9,7.2c0,4.6,4.8,5.9,9.8,7.3c3,0.9,6.2,1.7,8.6,3.3
		c2.7,1.8,4,4.3,4,7.6C300,32.6,296.6,37.9,287.1,37.9z"/>
	<path id="XMLID_15_" fill="#F9F9FA" d="M48.4,0C37.9,0,29.5,8.5,29.5,18.9s8.5,18.9,18.9,18.9s18.9-8.5,18.9-18.9S58.8,0,48.4,0z
		 M48.4,28.4c-5.2,0-9.5-4.2-9.5-9.5s4.2-9.5,9.5-9.5s9.5,4.2,9.5,9.5S53.6,28.4,48.4,28.4z"/>
	<path id="XMLID_14_" fill="#F9F9FA" d="M142.1,6.5c-3.5-3.9-8.5-6.3-14.1-6.3c-10.4,0-18.9,8.5-18.9,18.9S117.6,38,128,38
		c5.3,0,10.2-2.2,13.6-5.8l-2.3-1.5c-2.9,2.8-6.9,4.6-11.3,4.6c-8.9,0-16.2-7.3-16.2-16.2S119.1,2.9,128,2.9c4.7,0,8.8,2,11.8,5.1
		L142.1,6.5z"/>
	<path id="XMLID_3_" fill="#F9F9FA" d="M155.5,37.4V0.8h2.6v34.1h18.3v2.5H155.5z"/>
</svg>
