<svg version="1.1" xmlns="http://www.w3.org/2000/svg" xmlns:xlink="http://www.w3.org/1999/xlink" x="0px" y="0px" viewBox="0 0 50 50" enable-background="new 0 0 50 50" xml:space="preserve">
	<g>
		<path fill="#FFFFFF" d="M22.5,44.3c-8.4-1-15.1-7.4-16.6-15.6l9.3,0v3.6h-4.2c0,0,0,0,0,0c1.7,3.2,4.5,5.8,7.9,7.2c0,0,0,0,0,0V25 H5.5l0,0l0,0c0-9.9,7.4-18.1,17-19.3v12h-3.6v-7.3c-4.5,1.9-8,6-9.2,10.9h12.8L22.5,44.3z"></path>
		<path fill="#FFFFFF" d="M39.5,38c2.8-2.4,4.9-8,4.9-13c0-9.9-7.4-18.1-17-19.3l0,2.2h0l0,36.3c1.2-0.2,2.5-0.4,3.6-0.8l0-0.4V10.5 c0,0,0,0,0,0c0.9,0.4,1.7,0.8,2.5,1.3c0,0,0,0,0,0l0,30.7c1.3-0.6,2.5-1.4,3.6-2.3l0-25.2c0,0,0,0,0,0c2.2,2.7,3.6,6.2,3.6,10 c0,2.2-0.4,4.2-1.2,6.1L39.5,38z"></path>
		<path fill="#FFFFFF" d="M25,0.6C11.5,0.6,0.6,11.6,0.6,25c0,12.6,9.6,23,21.9,24.3v-3.7C12.2,44.4,4.3,35.6,4.3,25 C4.3,14,12.9,5,23.8,4.3v45h2.5v-45C37.1,5,45.7,14,45.7,25c0,10.6-8,19.3-18.2,20.6v3.7c12.3-1.2,22-11.6,22-24.3 C49.4,11.6,38.5,0.6,25,0.6z"></path>
	</g>
</svg>