<svg version="1.1" xmlns="http://www.w3.org/2000/svg" xmlns:xlink="http://www.w3.org/1999/xlink" x="0px" y="0px" viewBox="-462 463 75 75" style="enable-background:new -462 463 75 75;" xml:space="preserve">
	<g>
		<path fill="#F2F2F2" d="M-421.7,505.1c4.2,0,8.2-2.5,8.2-7.5s-3.2-8.3-7.5-8.3c-3.1,0-16.3,0-23.5,0c-1.6,0-2.9,0-3.7,0h-10.6l9.4,4.3 c-0.4,1.8-0.6,3.7-0.6,5.7c0,16,13,29,29,29c1.7,0,3.3-0.1,4.9-0.4l-16.2-22.8C-432.4,505.1-426,505.1-421.7,505.1z"></path>
		<path fill="#F2F2F2" d="M-416.2,511.8c0,0,13.5-1.1,13.5-14.6s-9.6-17.5-16.6-17.5c-4.4,0-15.4,0-23,0c5.3-5.7,12.9-9.3,21.3-9.3 c16,0,29,13,29,29c0,8.9-4,16.9-10.4,22.2l2.7,11.1L-416.2,511.8z"></path>
	</g>
</svg>