<svg version="1.1" xmlns="http://www.w3.org/2000/svg" xmlns:xlink="http://www.w3.org/1999/xlink" x="0px" y="0px" viewBox="0 0 50 50" enable-background="new 0 0 50 50" xml:space="preserve">
	<path fill="#FFFFFF" d="M40.8,47.7c8.8-6.5,8.7-13.7,8.7-39.4L26.5,0.6c-0.7,2.6-1.2,6-0.1,9.7C26.7,10,29.5,7,32,4.3
		c0,0,3.3,3.8-1.3,7.7c0,0,8.3,5.8,8.8,6c0,0-0.4,1.8,0,3.3L46,33.9l-3.3,3.9l-4.8-2.7l2.3,3.7c0,0-2.6,0.3-3.4-0.1
		c-0.5-2.4-2.5-6.2-2.5-6.2l-4.9-2c0,0-2.1-2.6-2-6.4c0,0-2.6,10.8,5,12.8L40.8,47.7z M2.4,39c0.6,1.7,1.3,3.2,2.2,4.5
		c1.4-0.7,3-1.5,4.5-2.7c-0.2-0.6-0.3-1.3-0.5-1.9c-0.2-1.1-0.3-2.3-0.4-3.4C6.4,36.9,4.4,38.2,2.4,39 M9.7,43.1
		c-0.9,1-1.9,2-2.9,2.9c1.2,1.2,2.7,2.3,4.4,3.5C10.7,47.5,10.2,45.3,9.7,43.1 M0.9,30.7C1,32.4,1.2,34,1.5,35.5c2-0.4,4.4-1,6.8-2.1
		c0-1.4,0.2-2.8,0.5-4.1C6.3,30,3.5,30.6,0.9,30.7 M0.5,21.8c0,1.3,0.1,2.6,0.1,3.8C3,26.4,6.2,27,9.5,26.8c0.3-1.1,0.7-2.1,1.2-3.1
		C6.7,23.2,3,22.5,0.5,21.8 M14.1,18.1c-3.3-1.7-9.7-5.2-13.7-8.3c0,2.3,0,4.5,0,6.5C4,18.5,8.8,20.1,12,21.1
		C12.7,20,13.4,19,14.1,18.1 M11.6,4.5L7.1,6.1c1.9,3.3,4.8,7.5,8.8,10c0.7-0.8,1.5-1.5,2.3-2.1C16,11.6,13.1,8.1,11.6,4.5 M21.8,1
		l-4.6,1.6c0.4,3,1.2,6.6,3.1,9.8c1.2-0.8,2.5-1.4,3.6-1.7C23,8.3,21.9,4.7,21.8,1 M37.1,21.4l-1-1.2l-2.2-1.5c0,0,0.7,2.2,1.3,2.6
		C35.7,21.8,37.1,21.4,37.1,21.4 M43.9,34.1l-1.6-0.6L41,32.4l0.8,1.8L43.9,34.1z"></path>
</svg>