<svg version="1.1" xmlns="http://www.w3.org/2000/svg" xmlns:xlink="http://www.w3.org/1999/xlink" x="0px" y="0px" viewBox="0 0 50 50" enable-background="new 0 0 50 50" xml:space="preserve">
	<path fill="#FFFFFF" d="M0.2,34.7H18c0,0,2.2-0.6,2.2-2.3c0-1.7,0-6.4,0-6.4s-2.9,2.6-5.3,2.6c-1.9,0-2.6,0-2.6,0s7.2-10.7,8.7-12.9 c1.5-2.2,5.2-6.1,12.2-3.5c0,0-1.1-4.9-7.6-4.8c-6.5,0.1-9.1,4.5-10,5.7C14.7,14.2,0.2,34.7,0.2,34.7z"></path>
	<path fill="#FFFFFF" d="M17.9,36.4c0,0,1.9,1,5.8,0c3.9-1,4.1-5.2,4.1-5.2s0-10.9,0-12.3c0-1.4,0.6-4.7,4.6-5.4c0,0-2.2-1.1-5.8,0 c-4.1,1.3-4.2,5.3-4.2,5.3v12.5C22.3,31.4,22.6,35.5,17.9,36.4z"></path>
	<path fill="#FFFFFF" d="M16.8,38c0,0,1.2,4.8,7.2,4.8s9.4-4.3,9.4-4.3l16.4-23c0,0-16.7,0-17.6,0c-0.8,0-2.4,0.7-2.4,2.8 s0.1,5.8,0.1,5.8s2.6-2.5,4.8-2.5c1.8,0,2.9,0,2.9,0s-7.8,11.9-8.8,13.2C27.9,36,25,40.6,16.8,38z"></path>
</svg>